<?xml version="1.0" encoding="UTF-8"?>
<svg version="1.1" xmlns="http://www.w3.org/2000/svg" width="442" height="667">
<path d="M0 0 C0.57975586 0.47969238 1.15951172 0.95938477 1.75683594 1.45361328 C12.95680765 10.75503133 23.04139641 20.47130522 32 32 C32.65403809 32.83942139 32.65403809 32.83942139 33.32128906 33.69580078 C66.24732739 76.27499534 79.0090255 129.28034397 72.35058594 182.41943359 C67.6771463 216.81933397 53.76544644 248.97827228 32 276 C31.58814453 276.51336914 31.17628906 277.02673828 30.75195312 277.55566406 C19.88130768 291.0172829 7.91645265 302.7139263 -6 313 C-7.27617188 313.95132813 -7.27617188 313.95132813 -8.578125 314.921875 C-52.90794983 346.92154988 -109.05303323 359.44612345 -163 351 C-163.77504883 350.88172852 -164.55009766 350.76345703 -165.34863281 350.64160156 C-215.17037761 342.70485827 -263.80232725 314.15709743 -293.74609375 273.21875 C-294.48988281 272.1565625 -295.23367188 271.094375 -296 270 C-296.40234863 269.43667969 -296.80469727 268.87335938 -297.21923828 268.29296875 C-328.37168362 224.50721776 -338.77408244 170.74439106 -330.22265625 118.046875 C-321.60792651 69.01694832 -292.99036931 24.39326402 -253 -5 C-251.94039063 -5.78117187 -250.88078125 -6.56234375 -249.7890625 -7.3671875 C-241.55054435 -13.24603132 -232.94426285 -18.28072153 -224 -23 C-222.87722656 -23.59554687 -221.75445312 -24.19109375 -220.59765625 -24.8046875 C-150.95018838 -59.42897279 -59.86441638 -49.98586099 0 0 Z M-197.68164062 97.44775391 C-214.70860964 117.49543335 -218.68957977 141.47716729 -217 167 C-214.81770516 187.3411433 -202.9280139 208.21574099 -187.40429688 221.35009766 C-166.83393502 237.6800779 -143.98535052 243.63769557 -118 242 C-95.79638262 239.23202307 -75.03148648 227.28778193 -60.6875 210.1875 C-44.89089035 189.09202762 -38.98126235 164.64448089 -42.32080078 138.48730469 C-45.58639201 120.24284722 -54.34108081 105.25194963 -67 92 C-67.54011719 91.38511719 -68.08023438 90.77023438 -68.63671875 90.13671875 C-81.54921288 75.98826801 -103.28014572 66.99178958 -122.09082031 65.87597656 C-151.89549177 64.81479925 -177.4918772 75.21133697 -197.68164062 97.44775391 Z " fill="#EB5E28" transform="translate(351,150)"/>
</svg>
